<?xml version="1.0" encoding="UTF-8" standalone="no"?>
<!-- Created with Inkscape (http://www.inkscape.org/) -->

<svg
   xmlns:dc="http://purl.org/dc/elements/1.1/"
   xmlns:cc="http://creativecommons.org/ns#"
   xmlns:rdf="http://www.w3.org/1999/02/22-rdf-syntax-ns#"
   xmlns:svg="http://www.w3.org/2000/svg"
   xmlns="http://www.w3.org/2000/svg"
   xmlns:sodipodi="http://sodipodi.sourceforge.net/DTD/sodipodi-0.dtd"
   xmlns:inkscape="http://www.inkscape.org/namespaces/inkscape"
   width="32.636631mm"
   height="35.277779mm"
   viewBox="0 0 115.64161 125.00001"
   id="svg4728"
   version="1.1"
   inkscape:version="0.91 r13725"
   sodipodi:docname="kurt_logo.svg">
  <defs
     id="defs4730" />
  <sodipodi:namedview
     id="base"
     pagecolor="#ffffff"
     bordercolor="#666666"
     borderopacity="1.0"
     inkscape:pageopacity="0.0"
     inkscape:pageshadow="2"
     inkscape:zoom="0.98994949"
     inkscape:cx="150.14291"
     inkscape:cy="-153.62214"
     inkscape:document-units="px"
     inkscape:current-layer="layer1"
     showgrid="false"
     fit-margin-top="0"
     fit-margin-left="0"
     fit-margin-right="0"
     fit-margin-bottom="0"
     inkscape:window-width="1920"
     inkscape:window-height="1009"
     inkscape:window-x="0"
     inkscape:window-y="0"
     inkscape:window-maximized="1" />
  <metadata
     id="metadata4733">
    <rdf:RDF>
      <cc:Work
         rdf:about="">
        <dc:format>image/svg+xml</dc:format>
        <dc:type
           rdf:resource="http://purl.org/dc/dcmitype/StillImage" />
        <dc:title />
      </cc:Work>
    </rdf:RDF>
  </metadata>
  <g
     inkscape:label="Layer 1"
     inkscape:groupmode="layer"
     id="layer1"
     transform="translate(-186.20961,-69.79763)">
    <g
       transform="translate(-16.327014,-390.12648)"
       id="g4724"
       style="fill:#800080"
       inkscape:export-filename="/home/elshize/qt/kurt/logo.png"
       inkscape:export-xdpi="90"
       inkscape:export-ydpi="90">
      <path
         sodipodi:nodetypes="sccssscccccccccccsss"
         style="fill:#800080;fill-opacity:1"
         id="rect3336-10-3"
         d="m 254.85742,459.92411 c -3.878,0 -7,3.122 -7,7 0,37 0,74 0,111 0,3.878 3.122,7 7,7 l 11,0 c 3.878,0 7,-3.122 7,-7 l 0,-33.84766 29.31446,16.92383 c 3.35844,1.939 7.62349,0.79595 9.5625,-2.5625 l 5.5,-9.52539 c 1.939,-3.35845 0.79594,-7.6235 -2.5625,-9.5625 l -29.31446,-16.92578 29.31446,-16.92383 c 3.35844,-1.939 4.5015,-6.20405 2.5625,-9.5625 l -5.5,-9.52539 c -1.93901,-3.35845 -6.20406,-4.5015 -9.5625,-2.5625 l -29.31446,16.92383 0,-33.84961 c 0,-3.878 -3.122,-7 -7,-7 z"
         inkscape:connector-curvature="0" />
      <path
         sodipodi:nodetypes="cccccccccccc"
         style="opacity:0.5;fill:#800080;fill-opacity:1;stroke:none;stroke-width:3;stroke-linecap:square;stroke-linejoin:miter;stroke-miterlimit:4;stroke-dasharray:none;stroke-opacity:1"
         id="rect3336-10-3-0"
         d="m 247.85742,500.77372 -29.31445,-16.92383 c -3.35845,-1.939 -7.6235,-0.79595 -9.5625,2.5625 l -5.5,9.52539 c -1.939,3.35845 -0.79595,7.6235 2.5625,9.5625 l 29.31445,16.92383 -29.31445,16.92578 c -3.35845,1.939 -4.5015,6.20405 -2.5625,9.5625 l 5.5,9.52539 c 1.939,3.35845 6.20405,4.5015 9.5625,2.5625 l 29.31445,-16.92383 c 0,-12.17855 0,-25.39455 0,-43.30273 z"
         inkscape:connector-curvature="0" />
    </g>
  </g>
</svg>
